<?xml version="1.0" encoding="utf-8"?>
<!-- Generator: Adobe Illustrator 23.0.1, SVG Export Plug-In . SVG Version: 6.00 Build 0)  -->
<svg version="1.1" id="Layer_1" xmlns="http://www.w3.org/2000/svg" xmlns:xlink="http://www.w3.org/1999/xlink" x="0px" y="0px"
	 viewBox="0 0 300 300" style="enable-background:new 0 0 300 300;" xml:space="preserve">
<style type="text/css">
	.st0{fill:#ED4D6E;}
	.st1{fill:#FFFFFF;}
</style>
<g>
	<circle class="st0" cx="149.5" cy="149.5" r="148.5"/>
</g>
<g>
	<g>
		<path class="st1" d="M85.81,90.36L85.81,90.36L85.81,90.36l14.81,24.42c10.95-14.98,28.63-24.72,48.6-24.77l13.81-23.92L149.12,42
			c-0.04,0-0.08,0-0.12,0c-37.85,0-71.14,19.47-90.43,48.94L85.81,90.36z"/>
	</g>
	<g>
		<path class="st1" d="M214.94,205.24l26.85,0.05C251.45,189.11,257,170.21,257,150c0-17.94-4.38-34.85-12.12-49.74l-12.21,24.07
			l0,0l0,0l-28.15,1.52c3.33,7.49,5.2,15.78,5.2,24.51c0,11.32-3.12,21.9-8.54,30.95L214.94,205.24z"/>
	</g>
	<g>
		<path class="st1" d="M169.8,66.08L169.8,66.08L169.8,66.08l-14,24.26c19.6,2.07,36.39,13.53,45.81,29.79l27.37-1.48l12.45-24.55
			c-17.79-29.35-49.16-49.54-85.4-51.87L169.8,66.08z"/>
	</g>
	<g>
		<path class="st1" d="M65.47,173.31L65.47,173.31L65.47,173.31l28.21,0.39c-3.01-7.18-4.68-15.06-4.68-23.33
			c0-10.98,2.95-21.26,8.07-30.13L82.55,96.29l-27.6,0.59C46.07,112.57,41,130.69,41,150c0,16.7,3.79,32.52,10.56,46.63
			L65.47,173.31z"/>
	</g>
	<g>
		<path class="st1" d="M127.74,234.09L127.74,234.09L127.74,234.09l13.79-23.89c-19.39-2.51-35.88-14.21-44.97-30.6l-27.78-0.39
			l-14.03,23.53c17.32,30.88,49.37,52.38,86.64,54.98L127.74,234.09z"/>
	</g>
	<g>
		<path class="st1" d="M211.54,211.09L211.54,211.09L211.54,211.09l-14.01-24.36c-11.02,14.57-28.49,23.99-48.17,23.99
			c-0.45,0-0.9-0.02-1.35-0.03l-13.51,23.4l13.8,23.9c0.23,0,0.46,0.01,0.69,0.01c36.95,0,69.56-18.56,89.03-46.86L211.54,211.09z"
			/>
	</g>
</g>
<g>
	<path class="st1" d="M124.9,159.64c0,0.51-0.2,0.94-0.61,1.29c-0.41,0.35-0.87,0.53-1.4,0.53c-0.35,0-0.68-0.09-0.99-0.28
		c-0.31-0.19-0.55-0.48-0.73-0.88l-1.98-4.42h-11.62l-1.98,4.42c-0.18,0.4-0.42,0.69-0.73,0.88c-0.31,0.19-0.65,0.28-1.02,0.28
		c-0.51,0-0.97-0.18-1.39-0.53c-0.42-0.35-0.63-0.78-0.63-1.29c0-0.29,0.07-0.57,0.2-0.86l9.11-19.57c0.2-0.44,0.5-0.78,0.91-1.01
		c0.41-0.23,0.84-0.35,1.3-0.35c0.46,0,0.9,0.12,1.3,0.35c0.41,0.23,0.71,0.57,0.91,1.01l9.14,19.57
		C124.83,159.07,124.9,159.36,124.9,159.64z M109.02,152.58h8.71l-4.36-9.8L109.02,152.58z"/>
	<path class="st1" d="M146.31,149.2c0.31,0.3,0.46,0.69,0.46,1.17v7.09c0,1.01-0.13,1.73-0.4,2.15c-0.26,0.42-0.8,0.76-1.62,1.02
		c-0.88,0.31-1.9,0.55-3.07,0.73c-1.17,0.18-2.29,0.26-3.37,0.26c-2.4,0-4.48-0.47-6.24-1.42c-1.76-0.95-3.11-2.32-4.04-4.11
		c-0.94-1.79-1.4-3.93-1.4-6.42c0-2.44,0.47-4.56,1.4-6.35c0.93-1.79,2.26-3.17,3.98-4.13c1.72-0.96,3.74-1.44,6.07-1.44
		c3.1,0,5.64,0.84,7.62,2.51c0.26,0.24,0.46,0.48,0.58,0.73c0.12,0.24,0.18,0.53,0.18,0.86c0,0.48-0.13,0.89-0.4,1.22
		c-0.26,0.33-0.58,0.5-0.96,0.5c-0.24,0-0.46-0.04-0.66-0.12c-0.2-0.08-0.43-0.2-0.69-0.38c-0.97-0.68-1.87-1.16-2.71-1.44
		c-0.84-0.27-1.78-0.41-2.84-0.41c-2.4,0-4.21,0.71-5.43,2.13c-1.22,1.42-1.83,3.53-1.83,6.32c0,5.72,2.51,8.58,7.52,8.58
		c1.5,0,2.99-0.21,4.49-0.63v-5.84h-3.73c-0.53,0-0.94-0.13-1.24-0.4c-0.3-0.26-0.45-0.64-0.45-1.12c0-0.48,0.15-0.86,0.45-1.12
		c0.3-0.26,0.71-0.4,1.24-0.4h5.84C145.6,148.75,146,148.9,146.31,149.2z"/>
	<path class="st1" d="M152.14,160.93c-0.39-0.4-0.58-0.91-0.58-1.55v-19.37c0-0.64,0.19-1.15,0.58-1.53
		c0.38-0.38,0.9-0.58,1.53-0.58c0.66,0,1.18,0.19,1.57,0.58c0.38,0.39,0.58,0.9,0.58,1.53v19.37c0,0.64-0.19,1.16-0.58,1.55
		c-0.38,0.4-0.91,0.59-1.57,0.59C153.03,161.52,152.52,161.32,152.14,160.93z"/>
	<path class="st1" d="M161.36,160.8c-0.35-0.35-0.53-0.84-0.53-1.45v-19.34c0-0.64,0.19-1.15,0.58-1.53
		c0.38-0.38,0.9-0.58,1.53-0.58c0.66,0,1.18,0.19,1.57,0.58c0.38,0.39,0.58,0.9,0.58,1.53v17.82h9.27c1.32,0,1.98,0.58,1.98,1.75
		c0,1.17-0.66,1.75-1.98,1.75h-11.52C162.21,161.32,161.71,161.15,161.36,160.8z"/>
	<path class="st1" d="M179.69,160.8c-0.36-0.35-0.54-0.85-0.54-1.49v-19.24c0-0.64,0.18-1.13,0.54-1.48
		c0.36-0.35,0.86-0.53,1.5-0.53h11.91c0.64,0,1.13,0.14,1.49,0.43c0.35,0.29,0.53,0.69,0.53,1.22c0,0.55-0.18,0.97-0.53,1.27
		c-0.35,0.3-0.85,0.45-1.49,0.45h-9.8v6.4h9.14c0.64,0,1.13,0.14,1.49,0.43c0.35,0.29,0.53,0.7,0.53,1.25
		c0,0.53-0.18,0.94-0.53,1.22c-0.35,0.29-0.85,0.43-1.49,0.43h-9.14v6.8h9.8c0.64,0,1.13,0.15,1.49,0.45
		c0.35,0.3,0.53,0.72,0.53,1.27c0,0.53-0.18,0.94-0.53,1.22c-0.35,0.29-0.85,0.43-1.49,0.43h-11.91
		C180.55,161.32,180.05,161.15,179.69,160.8z"/>
</g>
</svg>
