<?xml version="1.0" encoding="utf-8"?>
<!-- Generator: Adobe Illustrator 23.0.1, SVG Export Plug-In . SVG Version: 6.00 Build 0)  -->
<svg version="1.1" id="Layer_1" xmlns="http://www.w3.org/2000/svg" xmlns:xlink="http://www.w3.org/1999/xlink" x="0px" y="0px"
	 viewBox="0 0 300 300" style="enable-background:new 0 0 300 300;" xml:space="preserve">
<style type="text/css">
	.st0{fill:#E44D26;}
	.st1{fill:#F16529;}
	.st2{fill:#EBEBEB;}
	.st3{fill:#FFFFFF;}
	.st4{fill:#131313;}
	.st5{fill:#1572B6;}
	.st6{fill:#33A9DC;}
</style>
<g>
	<path class="st0" d="M299.54,132.27l-13.67,153.09l-61.43,17.03l-61.26-17.01l-13.65-153.11H299.54L299.54,132.27z"/>
	<path class="st1" d="M224.54,289.37l49.64-13.76l11.68-130.82h-61.31V289.37z"/>
	<path class="st2" d="M197.98,182.34h26.57v-18.78h-47.09l0.45,5.04l4.62,51.75h42.02v-18.78h-24.85L197.98,182.34z M202.21,229.74
		h-18.85l2.63,29.48l38.47,10.68l0.09-0.02v-19.54l-0.08,0.02l-20.91-5.65L202.21,229.74L202.21,229.74z"/>
	<path d="M163.5,90.66h9.54v9.43h8.73v-9.43h9.54v28.55h-9.54v-9.56h-8.73v9.56h-9.54L163.5,90.66L163.5,90.66z M203.86,100.13h-8.4
		v-9.47h26.35v9.47h-8.41v19.08h-9.54L203.86,100.13L203.86,100.13L203.86,100.13z M225.99,90.66h9.95l6.12,10.03l6.12-10.03h9.95
		v28.55h-9.5v-14.15l-6.57,10.15h-0.16l-6.57-10.15v14.15h-9.34V90.66z M262.88,90.66h9.55v19.11h13.42v9.44h-22.97L262.88,90.66
		L262.88,90.66z"/>
	<path class="st3" d="M224.48,220.35h23.12l-2.18,24.35l-20.94,5.65v19.54l38.5-10.67l0.28-3.17l4.41-49.44l0.46-5.04h-43.65V220.35
		L224.48,220.35z M224.48,182.3v0.05h45.36l0.38-4.22l0.86-9.52l0.45-5.04h-47.04V182.3L224.48,182.3z"/>
</g>
<g>
	<path class="st4" d="M118.54,10.59H106.1l12.94,14.05v6.68H92.38V23.5h12.94L92.38,9.45V2.76h26.17L118.54,10.59z M87.09,10.59
		H74.63l12.96,14.05v6.68H60.92V23.5h12.94L60.92,9.45V2.76h26.17V10.59z M55.94,10.91H42.51v12.26h13.42v8.16H32.96V2.76h22.98
		V10.91z"/>
	<path class="st5" d="M14.65,197.49L1,44.38h150l-13.67,153.08l-61.42,17.02L14.65,197.49z"/>
	<path class="st6" d="M76,201.48l49.63-13.76L137.3,56.9H76L76,201.48z"/>
	<path class="st3" d="M76,112.36h24.85l1.71-19.23H76V74.37h47.09l-0.45,5.04l-4.62,51.75H76L76,112.36z"/>
	<path class="st2" d="M76.1,161.13h-0.08l-20.91-5.65l-1.34-14.97H34.93l2.63,29.48l38.47,10.71h0.11v-19.57H76.1z"/>
	<path class="st3" d="M99.26,130.34L97,155.47l-20.95,5.65v19.57l38.5-10.67l0.28-3.18l3.27-36.5L99.26,130.34L99.26,130.34z"/>
	<path class="st2" d="M76.07,74.37v18.78H30.72l-0.39-4.22l-0.86-9.52l-0.45-5.04L76.07,74.37z M76,112.36v18.78H55.33l-0.36-4.22
		l-0.86-9.52l-0.45-5.04L76,112.36L76,112.36z"/>
</g>
</svg>
