<svg id="Layer_1" data-name="Layer 1" xmlns="http://www.w3.org/2000/svg" viewBox="0 0 300 300"><defs><style>.cls-1{fill:#fff;}</style></defs><title>mj</title><path class="cls-1" d="M247.08,48.53q-4.62-5.19-12.53-5.2c-.21,0-.41,0-.61,0l-.66,0q-11,0-17.52,12.77L150.13,181.72,84.21,56.1Q77.67,43.34,66.09,43.33q-8.31,0-13.21,5.2T48,62.34v175.8q0,8.31,4.45,13.06T64.61,256q7.71,0,12.32-4.9t4.6-12.91V117.27l50.78,94.14q3.57,6.84,7.72,9.8a16.42,16.42,0,0,0,9.8,3,15.87,15.87,0,0,0,9.8-3.12,29.53,29.53,0,0,0,7.73-9.65l50.3-95.28v79q0,14.55-5.55,21.68t-16.36,7.72l-8.44.59q-7.12.6-10.42,4.31t-3.3,10.84q0,16.64,20.32,15.73l8.44-.59q49.35-4.16,49.35-60.28V62.34Q251.7,53.73,247.08,48.53Z"/></svg>