<?xml version="1.0" encoding="utf-8"?>
<!-- Generator: Adobe Illustrator 23.0.1, SVG Export Plug-In . SVG Version: 6.00 Build 0)  -->
<svg version="1.1" id="Layer_1" xmlns="http://www.w3.org/2000/svg" xmlns:xlink="http://www.w3.org/1999/xlink" x="0px" y="0px"
	 viewBox="0 0 300 300" style="enable-background:new 0 0 300 300;" xml:space="preserve">
<style type="text/css">
	.st0{fill:#ED4D6E;}
	.st1{fill:#FFFFFF;}
</style>
<g>
	<circle class="st0" cx="150.5" cy="149.5" r="148.5"/>
</g>
<g>
	<path class="st1" d="M23,174h49v-49H23V174z M36.38,157.29c0.35-0.43,0.76-0.65,1.24-0.65c0.5,0,1.08,0.2,1.72,0.59
		c1.2,0.87,2.46,1.5,3.78,1.89c1.32,0.39,2.77,0.59,4.37,0.59c2.04,0,3.61-0.36,4.7-1.07c1.09-0.71,1.64-1.76,1.64-3.13
		c0-1.06-0.51-1.88-1.53-2.46c-1.02-0.57-2.72-1.13-5.1-1.66c-2.46-0.53-4.47-1.15-6.01-1.85c-1.54-0.7-2.7-1.6-3.49-2.69
		c-0.78-1.09-1.18-2.48-1.18-4.16c0-1.74,0.49-3.29,1.47-4.66c0.98-1.37,2.35-2.44,4.1-3.21c1.75-0.77,3.72-1.16,5.9-1.16
		c4,0,7.27,1.06,9.79,3.19c0.36,0.31,0.62,0.61,0.78,0.9c0.15,0.29,0.23,0.67,0.23,1.11c0,0.59-0.17,1.1-0.52,1.53
		c-0.35,0.43-0.76,0.65-1.24,0.65c-0.28,0-0.54-0.04-0.78-0.13s-0.55-0.24-0.94-0.46c-1.15-0.84-2.26-1.46-3.34-1.87
		c-1.08-0.41-2.4-0.61-3.97-0.61c-1.9,0-3.41,0.39-4.51,1.16c-1.11,0.77-1.66,1.84-1.66,3.21c0,1.15,0.49,2.03,1.47,2.65
		c0.98,0.62,2.65,1.19,5,1.72c2.49,0.56,4.52,1.18,6.07,1.87c1.55,0.69,2.74,1.56,3.57,2.63c0.83,1.06,1.24,2.39,1.24,3.99
		c0,1.74-0.48,3.27-1.45,4.6s-2.32,2.37-4.07,3.11c-1.75,0.74-3.76,1.11-6.03,1.11c-2.16,0-4.19-0.29-6.11-0.86
		c-1.92-0.57-3.48-1.35-4.68-2.33c-0.64-0.48-0.97-1.15-0.97-2.02C35.85,158.24,36.03,157.73,36.38,157.29z"/>
	<path class="st1" d="M99.55,159.71c2.72,0,4.84-0.94,6.36-2.81c1.53-1.88,2.29-4.56,2.29-8.06c0-3.5-0.76-6.18-2.29-8.04
		c-1.53-1.86-3.65-2.79-6.36-2.79c-2.74,0-4.88,0.93-6.4,2.79c-1.53,1.86-2.29,4.54-2.29,8.04c0,3.5,0.76,6.19,2.29,8.06
		C94.67,158.77,96.81,159.71,99.55,159.71z"/>
	<path class="st1" d="M74.67,174h49v-49h-49V174z M87.14,140.79c1.13-2.28,2.76-4.04,4.89-5.27s4.63-1.85,7.52-1.85
		c2.88,0,5.38,0.62,7.5,1.85c2.11,1.23,3.74,2.99,4.87,5.27c1.13,2.28,1.7,4.96,1.7,8.04c0,3.08-0.57,5.77-1.72,8.06
		c-1.15,2.3-2.78,4.06-4.89,5.29c-2.11,1.23-4.6,1.85-7.46,1.85c-2.88,0-5.38-0.62-7.5-1.85c-2.11-1.23-3.75-3-4.89-5.29
		c-1.15-2.3-1.72-4.98-1.72-8.06C85.44,145.75,86.01,143.07,87.14,140.79z"/>
	<path class="st1" d="M126.35,174h49v-49h-49V174z M142.37,136.52c0-0.81,0.25-1.46,0.73-1.95c0.49-0.49,1.14-0.74,1.95-0.74
		c0.84,0,1.5,0.25,2,0.74c0.49,0.49,0.73,1.14,0.73,1.95v22.68h11.8c1.68,0,2.52,0.74,2.52,2.23s-0.84,2.23-2.52,2.23h-14.66
		c-0.81,0-1.44-0.22-1.89-0.67c-0.45-0.45-0.67-1.06-0.67-1.85V136.52z"/>
	<path class="st1" d="M178.02,174h49v-49h-49V174z M199.37,136.52c0-0.81,0.25-1.46,0.74-1.95c0.49-0.49,1.14-0.74,1.95-0.74
		c0.84,0,1.5,0.25,2,0.74c0.49,0.49,0.73,1.14,0.73,1.95v24.65c0,0.81-0.24,1.47-0.73,1.97s-1.15,0.76-2,0.76
		c-0.81,0-1.46-0.25-1.95-0.76s-0.74-1.16-0.74-1.97V136.52z"/>
	<path class="st1" d="M229.69,125v49h49v-49H229.69z M263.56,160.77c-2.67,2.59-6.43,3.88-11.28,3.88h-8.32
		c-0.81,0-1.45-0.22-1.91-0.67c-0.46-0.45-0.69-1.08-0.69-1.89v-24.49c0-0.81,0.23-1.44,0.69-1.89c0.46-0.45,1.1-0.67,1.91-0.67
		h8.32c4.84,0,8.6,1.3,11.28,3.89s4.01,6.22,4.01,10.9C267.57,154.53,266.24,158.18,263.56,160.77z"/>
	<path class="st1" d="M251.95,139.46h-5.17v20.79h5.17c6.8,0,10.21-3.47,10.21-10.42C262.16,142.91,258.75,139.46,251.95,139.46z"/>
	<path class="st0" d="M36.82,160.84c1.2,0.98,2.76,1.76,4.68,2.33c1.92,0.57,3.95,0.86,6.11,0.86c2.27,0,4.28-0.37,6.03-1.11
		c1.75-0.74,3.11-1.78,4.07-3.11s1.45-2.86,1.45-4.6c0-1.6-0.41-2.92-1.24-3.99c-0.83-1.06-2.02-1.94-3.57-2.63
		c-1.55-0.69-3.58-1.31-6.07-1.87c-2.35-0.53-4.02-1.11-5-1.72c-0.98-0.62-1.47-1.5-1.47-2.65c0-1.37,0.55-2.44,1.66-3.21
		c1.11-0.77,2.61-1.16,4.51-1.16c1.57,0,2.89,0.2,3.97,0.61c1.08,0.41,2.19,1.03,3.34,1.87c0.39,0.22,0.71,0.38,0.94,0.46
		s0.5,0.13,0.78,0.13c0.48,0,0.89-0.22,1.24-0.65c0.35-0.43,0.52-0.95,0.52-1.53c0-0.45-0.08-0.82-0.23-1.11
		c-0.15-0.29-0.41-0.59-0.78-0.9c-2.52-2.13-5.78-3.19-9.79-3.19c-2.18,0-4.15,0.39-5.9,1.16c-1.75,0.77-3.12,1.84-4.1,3.21
		c-0.98,1.37-1.47,2.93-1.47,4.66c0,1.68,0.39,3.07,1.18,4.16c0.78,1.09,1.95,1.99,3.49,2.69c1.54,0.7,3.54,1.32,6.01,1.85
		c2.38,0.53,4.08,1.08,5.1,1.66c1.02,0.57,1.53,1.39,1.53,2.46c0,1.37-0.55,2.42-1.64,3.13c-1.09,0.71-2.66,1.07-4.7,1.07
		c-1.6,0-3.05-0.2-4.37-0.59c-1.32-0.39-2.58-1.02-3.78-1.89c-0.64-0.39-1.22-0.59-1.72-0.59c-0.48,0-0.89,0.22-1.24,0.65
		c-0.35,0.43-0.52,0.95-0.52,1.53C35.85,159.69,36.18,160.37,36.82,160.84z"/>
	<path class="st0" d="M92.06,162.19c2.11,1.23,4.61,1.85,7.5,1.85c2.86,0,5.34-0.62,7.46-1.85c2.11-1.23,3.74-3,4.89-5.29
		c1.15-2.3,1.72-4.98,1.72-8.06c0-3.08-0.57-5.76-1.7-8.04c-1.13-2.28-2.76-4.04-4.87-5.27c-2.11-1.23-4.61-1.85-7.5-1.85
		c-2.88,0-5.39,0.62-7.52,1.85s-3.76,2.99-4.89,5.27c-1.13,2.28-1.7,4.96-1.7,8.04c0,3.08,0.57,5.77,1.72,8.06
		C88.31,159.19,89.94,160.95,92.06,162.19z M93.15,140.79c1.53-1.86,3.66-2.79,6.4-2.79c2.72,0,4.84,0.93,6.36,2.79
		c1.53,1.86,2.29,4.54,2.29,8.04c0,3.5-0.76,6.19-2.29,8.06c-1.53,1.88-3.65,2.81-6.36,2.81c-2.74,0-4.88-0.94-6.4-2.81
		c-1.53-1.88-2.29-4.56-2.29-8.06C90.86,145.33,91.62,142.65,93.15,140.79z"/>
	<path class="st0" d="M144.93,163.66h14.66c1.68,0,2.52-0.74,2.52-2.23s-0.84-2.23-2.52-2.23h-11.8v-22.68
		c0-0.81-0.25-1.46-0.73-1.95c-0.49-0.49-1.15-0.74-2-0.74c-0.81,0-1.46,0.25-1.95,0.74c-0.49,0.49-0.73,1.14-0.73,1.95v24.61
		c0,0.78,0.22,1.4,0.67,1.85C143.49,163.43,144.12,163.66,144.93,163.66z"/>
	<path class="st0" d="M202.05,163.91c0.84,0,1.5-0.25,2-0.76s0.73-1.16,0.73-1.97v-24.65c0-0.81-0.24-1.46-0.73-1.95
		c-0.49-0.49-1.15-0.74-2-0.74c-0.81,0-1.46,0.25-1.95,0.74c-0.49,0.49-0.74,1.14-0.74,1.95v24.65c0,0.81,0.25,1.47,0.74,1.97
		S201.24,163.91,202.05,163.91z"/>
	<path class="st0" d="M252.29,135.04h-8.32c-0.81,0-1.45,0.22-1.91,0.67c-0.46,0.45-0.69,1.08-0.69,1.89v24.49
		c0,0.81,0.23,1.44,0.69,1.89c0.46,0.45,1.1,0.67,1.91,0.67h8.32c4.84,0,8.6-1.29,11.28-3.88s4.01-6.24,4.01-10.94
		c0-4.68-1.34-8.31-4.01-10.9S257.13,135.04,252.29,135.04z M251.95,160.25h-5.17v-20.79h5.17c6.8,0,10.21,3.46,10.21,10.37
		C262.16,156.77,258.75,160.25,251.95,160.25z"/>
</g>
</svg>
