<?xml version="1.0" encoding="utf-8"?>
<!-- Generator: Adobe Illustrator 23.0.1, SVG Export Plug-In . SVG Version: 6.00 Build 0)  -->
<svg version="1.1" id="Layer_1" xmlns="http://www.w3.org/2000/svg" xmlns:xlink="http://www.w3.org/1999/xlink" x="0px" y="0px"
	 viewBox="0 0 300 300" style="enable-background:new 0 0 300 300;" xml:space="preserve">
<style type="text/css">
	.st0{fill:#ED4D6E;}
	.st1{fill:#FFFFFF;}
</style>
<g>
	<circle class="st0" cx="150" cy="150" r="150"/>
</g>
<g>
	<g>
		<path class="st1" d="M74.86,98.09l0.1-0.06l9.39,17.2c8.76-16.87,23.78-29.97,41.99-36.21C132.03,85.73,140.51,90,150,90
			c9.61,0,18.2-4.37,23.89-11.24c17.46,5.78,32.07,17.83,41.13,33.5l21.01,2.57l12.55-16.66c-14.66-28.09-41.1-49.05-72.77-56.35
			C170.25,33.49,160.77,28,150,28c-11.01,0-20.67,5.74-26.17,14.39C93.48,50.1,68.16,70.43,53.8,97.48l21.07,0.5L74.86,98.09z"/>
	</g>
	<g>
		<path class="st1" d="M144.12,241.27l-0.1-0.06l9.94-17.3c-1.15,0.05-2.3,0.09-3.46,0.09c-20.04,0-38.22-7.93-51.61-20.8
			c0.72-2.61,1.11-5.36,1.11-8.2c0-14.11-9.43-26-22.32-29.76C76.59,160.17,76,154.9,76,149.5c0-10.61,2.23-20.69,6.23-29.82
			l-9.7-17.76l-20.74-0.49C44.88,115.83,41,131.96,41,149c0,9.38,1.18,18.48,3.38,27.17c-4,5.22-6.38,11.75-6.38,18.83
			c0,17.12,13.88,31,31,31c1.11,0,2.2-0.06,3.28-0.17C92.26,246.29,120.14,259,151,259c1.08,0,2.16-0.02,3.24-0.05l-10.22-17.62
			L144.12,241.27z"/>
	</g>
	<g>
		<path class="st1" d="M261,149c0-16.74-3.75-32.61-10.44-46.82l-12.69,16.85l-0.09-0.07l-0.01,0.12l-20.43-2.5
			c4.9,9.93,7.67,21.1,7.67,32.92c0,5.21-0.55,10.29-1.57,15.2C209.47,167.72,199,180.13,199,195c0,3.37,0.55,6.62,1.54,9.66
			c-11.3,10.26-25.76,17.1-41.75,18.87l-10.19,17.73l10.13,17.47c27.69-1.92,52.55-14.09,70.83-32.74c0.15,0,0.29,0.01,0.44,0.01
			c17.12,0,31-13.88,31-31c0-5.71-1.55-11.06-4.25-15.66C259.51,169.71,261,159.53,261,149z"/>
	</g>
</g>
<g>
	<path class="st1" d="M119.21,160.96c-0.44-0.44-0.67-1.03-0.67-1.77v-20.52h-6.92c-1.52,0-2.28-0.67-2.28-2.01s0.76-2.01,2.28-2.01
		h18.73c1.52,0,2.28,0.67,2.28,2.01s-0.76,2.01-2.28,2.01h-6.92v20.52c0,0.73-0.22,1.32-0.67,1.77c-0.44,0.44-1.03,0.67-1.77,0.67
		C120.25,161.63,119.65,161.4,119.21,160.96z"/>
	<path class="st1" d="M136.16,160.83c-0.42-0.41-0.63-0.98-0.63-1.71v-22.15c0-0.73,0.21-1.3,0.63-1.71
		c0.42-0.4,0.99-0.61,1.73-0.61h7.52c4.38,0,7.78,1.17,10.2,3.52c2.42,2.34,3.63,5.63,3.63,9.86c0,4.26-1.21,7.56-3.63,9.9
		c-2.42,2.34-5.82,3.52-10.2,3.52h-7.52C137.15,161.44,136.57,161.23,136.16,160.83z M154.34,148.02c0-6.26-3.08-9.39-9.23-9.39
		h-4.67v18.81h4.67C151.26,157.45,154.34,154.3,154.34,148.02z"/>
	<path class="st1" d="M164.81,160.83c-0.42-0.41-0.63-0.98-0.63-1.71v-22.15c0-0.73,0.21-1.3,0.63-1.71
		c0.42-0.4,0.99-0.61,1.73-0.61h7.52c4.38,0,7.78,1.17,10.2,3.52s3.63,5.63,3.63,9.86c0,4.26-1.21,7.56-3.63,9.9
		c-2.42,2.34-5.82,3.52-10.2,3.52h-7.52C165.8,161.44,165.23,161.23,164.81,160.83z M182.99,148.02c0-6.26-3.08-9.39-9.23-9.39
		h-4.67v18.81h4.67C179.91,157.45,182.99,154.3,182.99,148.02z"/>
</g>
</svg>
